# Blender 3.6.5
# www.blender.org
mtllib K2.mtl
o Cone
v 0.000000 1.000000 0.000000
v 0.000000 0.000000 -0.500000
v 0.500000 0.000000 0.000000
v 0.000000 0.000000 0.500000
v -0.500000 0.000000 0.000000
v 0.000000 -1.000000 0.000000
vn 0.6667 0.3333 -0.6667
vn 0.6667 0.3333 0.6667
vn -0.6667 0.3333 0.6667
vn -0.6667 0.3333 -0.6667
vn 0.6667 -0.3333 -0.6667
vn 0.6667 -0.3333 0.6667
vn -0.6667 -0.3333 0.6667
vn -0.6667 -0.3333 -0.6667
vt 0.250000 0.370000
vt 0.250000 0.250000
vt 0.370000 0.250000
vt 0.250000 0.130000
vt 0.130000 0.250000
s 0
f 2/1/1 1/2/1 3/3/1
f 3/3/2 1/2/2 4/4/2
f 4/4/3 1/2/3 5/5/3
f 5/5/4 1/2/4 2/1/4
f 2/1/5 3/3/5 6/2/5
f 3/3/6 4/4/6 6/2/6
f 4/4/7 5/5/7 6/2/7
f 5/5/8 2/1/8 6/2/8
